<?xml version="1.0" encoding="UTF-8" standalone="no"?>
<!-- Created with Inkscape (http://www.inkscape.org/) -->

<svg
   xmlns:dc="http://purl.org/dc/elements/1.1/"
   xmlns:cc="http://creativecommons.org/ns#"
   xmlns:rdf="http://www.w3.org/1999/02/22-rdf-syntax-ns#"
   xmlns:svg="http://www.w3.org/2000/svg"
   xmlns="http://www.w3.org/2000/svg"
   xmlns:xlink="http://www.w3.org/1999/xlink"
   xmlns:sodipodi="http://sodipodi.sourceforge.net/DTD/sodipodi-0.dtd"
   xmlns:inkscape="http://www.inkscape.org/namespaces/inkscape"
   width="31.912378"
   height="23.97142"
   id="svg3303"
   version="1.1"
   inkscape:version="0.48.3.1 r9886"
   sodipodi:docname="bee-margot.svg">
  <defs
     id="defs3305">
    <linearGradient
       inkscape:collect="always"
       xlink:href="#linearGradient3799"
       id="linearGradient3805"
       x1="285.9104"
       y1="434.02103"
       x2="365.35889"
       y2="434.02103"
       gradientUnits="userSpaceOnUse" />
    <linearGradient
       inkscape:collect="always"
       id="linearGradient3799">
      <stop
         style="stop-color:#66c6ff;stop-opacity:1;"
         offset="0"
         id="stop3801" />
      <stop
         style="stop-color:#66c6ff;stop-opacity:0;"
         offset="1"
         id="stop3803" />
    </linearGradient>
    <linearGradient
       y2="434.02103"
       x2="365.35889"
       y1="434.02103"
       x1="285.9104"
       gradientUnits="userSpaceOnUse"
       id="linearGradient4649"
       xlink:href="#linearGradient3799"
       inkscape:collect="always" />
    <linearGradient
       y2="434.02103"
       x2="365.35889"
       y1="434.02103"
       x1="285.9104"
       gradientUnits="userSpaceOnUse"
       id="linearGradient4651"
       xlink:href="#linearGradient3799"
       inkscape:collect="always" />
    <radialGradient
       inkscape:collect="always"
       xlink:href="#linearGradient3809"
       id="radialGradient5051"
       gradientUnits="userSpaceOnUse"
       gradientTransform="matrix(0.99996652,-0.00818262,0.00330439,0.403817,-190.21459,500.45868)"
       cx="364.16"
       cy="219.32024"
       fx="364.16"
       fy="219.32024"
       r="108.08125" />
    <linearGradient
       id="linearGradient3809">
      <stop
         style="stop-color:#b4e3ff;stop-opacity:0.53086418;"
         offset="0"
         id="stop3811" />
      <stop
         style="stop-color:#66c6ff;stop-opacity:0;"
         offset="1"
         id="stop3813" />
    </linearGradient>
    <radialGradient
       inkscape:collect="always"
       xlink:href="#linearGradient3809"
       id="radialGradient5047"
       gradientUnits="userSpaceOnUse"
       gradientTransform="matrix(0.22656046,-0.01191495,0.01086944,0.20668032,13.20816,546.67373)"
       cx="364.16"
       cy="219.32024"
       fx="364.16"
       fy="219.32024"
       r="108.08125" />
    <linearGradient
       id="linearGradient3251">
      <stop
         style="stop-color:#b4e3ff;stop-opacity:0.53086418;"
         offset="0"
         id="stop3253" />
      <stop
         style="stop-color:#66c6ff;stop-opacity:0;"
         offset="1"
         id="stop3255" />
    </linearGradient>
    <linearGradient
       inkscape:collect="always"
       xlink:href="#linearGradient3915"
       id="linearGradient3967"
       gradientUnits="userSpaceOnUse"
       x1="494.93405"
       y1="134.45163"
       x2="519.35162"
       y2="134.45163" />
    <linearGradient
       id="linearGradient3915">
      <stop
         style="stop-color:#fce530;stop-opacity:1;"
         offset="0"
         id="stop3917" />
      <stop
         style="stop-color:#fffa81;stop-opacity:1;"
         offset="1"
         id="stop3919" />
    </linearGradient>
    <marker
       inkscape:stockid="DotS"
       orient="auto"
       refY="0"
       refX="0"
       id="DotS"
       style="overflow:visible">
      <path
         inkscape:connector-curvature="0"
         id="path4071"
         d="m -2.5,-1 c 0,2.76 -2.24,5 -5,5 -2.76,0 -5,-2.24 -5,-5 0,-2.76 2.24,-5 5,-5 2.76,0 5,2.24 5,5 z"
         style="fill-rule:evenodd;stroke:#000000;stroke-width:1pt"
         transform="matrix(0.2,0,0,0.2,1.48,0.2)" />
    </marker>
    <marker
       inkscape:stockid="DotS"
       orient="auto"
       refY="0"
       refX="0"
       id="marker3263"
       style="overflow:visible">
      <path
         inkscape:connector-curvature="0"
         id="path3265"
         d="m -2.5,-1 c 0,2.76 -2.24,5 -5,5 -2.76,0 -5,-2.24 -5,-5 0,-2.76 2.24,-5 5,-5 2.76,0 5,2.24 5,5 z"
         style="fill-rule:evenodd;stroke:#000000;stroke-width:1pt"
         transform="matrix(0.2,0,0,0.2,1.48,0.2)" />
    </marker>
  </defs>
  <sodipodi:namedview
     id="base"
     pagecolor="#ffffff"
     bordercolor="#666666"
     borderopacity="1.0"
     inkscape:pageopacity="0.0"
     inkscape:pageshadow="2"
     inkscape:zoom="7.9195959"
     inkscape:cx="61.689619"
     inkscape:cy="17.915199"
     inkscape:document-units="px"
     inkscape:current-layer="layer1"
     showgrid="false"
     inkscape:window-width="1920"
     inkscape:window-height="1056"
     inkscape:window-x="1366"
     inkscape:window-y="24"
     inkscape:window-maximized="1"
     fit-margin-top="0"
     fit-margin-left="0"
     fit-margin-right="0"
     fit-margin-bottom="0" />
  <metadata
     id="metadata3308">
    <rdf:RDF>
      <cc:Work
         rdf:about="">
        <dc:format>image/svg+xml</dc:format>
        <dc:type
           rdf:resource="http://purl.org/dc/dcmitype/StillImage" />
        <dc:title></dc:title>
      </cc:Work>
    </rdf:RDF>
  </metadata>
  <g
     inkscape:label="Camada 1"
     inkscape:groupmode="layer"
     id="layer1"
     transform="translate(-220.02651,-412.11152)">
    <g
       style="display:inline"
       id="g5065"
       transform="matrix(0.12986521,0,0,0.12986521,215.2195,352.49844)">
      <path
         sodipodi:nodetypes="sssss"
         inkscape:connector-curvature="0"
         id="path2985"
         d="m 282.2392,586.04414 c 0,31.52089 -36.16577,57.07362 -95.58126,57.07362 -59.41548,0 -119.58125,-25.55273 -119.58125,-57.07362 0,-31.52089 60.16577,-57.07362 119.58125,-57.07362 59.41549,0 95.58126,25.55273 95.58126,57.07362 z"
         style="fill:#66c6ff;fill-opacity:1;stroke:#000000;stroke-opacity:1" />
      <path
         sodipodi:nodetypes="cc"
         inkscape:connector-curvature="0"
         id="path3758"
         d="m 92.83558,552.7091 c 1.24732,26.60068 2.89755,38.55415 -1.01016,65.15484"
         style="fill:none;stroke:#000000;stroke-width:1px;stroke-linecap:butt;stroke-linejoin:miter;stroke-opacity:1" />
      <path
         sodipodi:nodetypes="cc"
         inkscape:connector-curvature="0"
         id="path3760"
         d="m 158.49549,530.48575 c 3.46044,37.20728 3.77522,71.88919 -3.53553,109.09647"
         style="fill:none;stroke:#000000;stroke-width:1px;stroke-linecap:butt;stroke-linejoin:miter;stroke-opacity:1" />
      <path
         sodipodi:nodetypes="cc"
         inkscape:connector-curvature="0"
         id="path3762"
         d="m 206.47774,529.47559 c 2.51868,36.70221 -2.8554,75.9298 -11.11168,112.63201"
         style="fill:none;stroke:#000000;stroke-width:1px;stroke-linecap:butt;stroke-linejoin:miter;stroke-opacity:1" />
      <path
         transform="matrix(0.58529977,0,0,0.57504633,185.42622,407.30806)"
         d="m 134.35029,262.75681 c 0,2.23156 -1.58291,4.04061 -3.53553,4.04061 -1.95262,0 -3.53554,-1.80905 -3.53554,-4.04061 0,-2.23157 1.58292,-4.04061 3.53554,-4.04061 1.95262,0 3.53553,1.80904 3.53553,4.04061 z"
         sodipodi:ry="4.0406103"
         sodipodi:rx="3.5355339"
         sodipodi:cy="262.75681"
         sodipodi:cx="130.81476"
         id="path3764"
         style="fill:#000000;fill-opacity:1;stroke:#000000;stroke-width:2.58553648;stroke-linecap:round;stroke-miterlimit:4;stroke-opacity:1;stroke-dasharray:none;stroke-dashoffset:7.00000003"
         sodipodi:type="arc" />
      <path
         sodipodi:type="arc"
         style="fill:#000000;fill-opacity:1;stroke:#000000;stroke-width:2.22562551;stroke-linecap:round;stroke-miterlimit:4;stroke-opacity:1;stroke-dasharray:none;stroke-dashoffset:7.00000003"
         id="path3766"
         sodipodi:cx="130.81476"
         sodipodi:cy="262.75681"
         sodipodi:rx="3.5355339"
         sodipodi:ry="4.0406103"
         d="m 134.35029,262.75681 c 0,2.23156 -1.58291,4.04061 -3.53553,4.04061 -1.95262,0 -3.53554,-1.80905 -3.53554,-4.04061 0,-2.23157 1.58292,-4.04061 3.53554,-4.04061 1.95262,0 3.53553,1.80904 3.53553,4.04061 z"
         transform="matrix(0.68134898,0,0,0.66666667,162.87606,391.00661)" />
      <path
         sodipodi:nodetypes="cc"
         inkscape:connector-curvature="0"
         id="path3768"
         d="m 237.32991,597.89982 c -0.34196,13.78589 4.96948,23.53251 11.56424,33.41441"
         style="fill:none;stroke:#000000;stroke-width:1px;stroke-linecap:butt;stroke-linejoin:miter;stroke-opacity:1" />
      <path
         sodipodi:nodetypes="ccccc"
         inkscape:connector-curvature="0"
         id="path3772"
         d="m 206.56703,530.1006 c 0.1973,34.12157 -0.0204,67.90557 -11.70605,112.51208 -13.33738,0.65998 -26.54919,-0.0614 -39.64849,-2.0203 5.47224,-36.17406 6.76447,-72.23085 3.35697,-109.39234 15.15315,-1.85023 31.41692,-2.1042 47.99757,-1.09944 z"
         style="fill:#000000;fill-opacity:1;stroke:#000000;stroke-width:1px;stroke-linecap:butt;stroke-linejoin:miter;stroke-opacity:1" />
      <g
         style="fill:url(#linearGradient3805);fill-opacity:1"
         transform="translate(-185.46145,63.506967)"
         id="g3768">
        <path
           sodipodi:nodetypes="sssss"
           inkscape:connector-curvature="0"
           id="path3792"
           d="m 319.25457,398.18583 c 9.62915,-5.61668 22.98336,-0.63947 34.61055,19.333 11.62719,19.97247 13.86922,47.58586 7.49521,52.99372 -5.16333,4.38066 -30.73827,-12.68144 -42.36545,-32.65392 -11.62718,-19.97245 -9.36946,-34.05611 0.25969,-39.6728 z"
           style="fill:url(#linearGradient4649);fill-opacity:1;stroke:#000000;stroke-width:1;stroke-linecap:round;stroke-miterlimit:4;stroke-opacity:1;stroke-dasharray:none;stroke-dashoffset:7.00000003" />
        <path
           style="fill:url(#linearGradient4651);fill-opacity:1;stroke:#000000;stroke-width:1;stroke-linecap:round;stroke-miterlimit:4;stroke-opacity:1;stroke-dasharray:none;stroke-dashoffset:7.00000003"
           d="m 291.27433,404.2521 c 8.75836,-9.50656 25.25795,-8.55145 44.9561,9.60043 19.69815,18.15188 31.59859,47.96891 26.3772,56.13335 -4.22964,6.61365 -38.39589,-3.55518 -58.09403,-21.70706 -19.69815,-18.15187 -21.99763,-34.52015 -13.23927,-44.02672 z"
           id="path3789"
           inkscape:connector-curvature="0"
           sodipodi:nodetypes="sssss" />
      </g>
      <path
         sodipodi:nodetypes="cccc"
         inkscape:connector-curvature="0"
         id="path3774"
         d="m 93.08811,552.20403 c 2.5895,20.24571 4.26276,36.82783 -1.51523,66.41753 -18.42439,-9.32334 -25.42307,-26.70588 -24.74873,-33.84011 2.82369,-16.72183 14.88874,-25.06494 26.26396,-32.57742 z"
         style="fill:#000000;fill-opacity:1;stroke:#000000;stroke-width:1px;stroke-linecap:butt;stroke-linejoin:miter;stroke-opacity:1" />
      <path
         style="fill:url(#radialGradient5051);fill-opacity:1;stroke:#000000;stroke-opacity:1"
         d="m 282.2392,586.04414 c 0,31.52089 -36.16577,57.07362 -95.58126,57.07362 -59.41548,0 -119.58125,-25.55273 -119.58125,-57.07362 0,-31.52089 60.16577,-57.07362 119.58125,-57.07362 59.41549,0 95.58126,25.55273 95.58126,57.07362 z"
         id="path3807"
         inkscape:connector-curvature="0"
         sodipodi:nodetypes="sssss" />
      <path
         inkscape:connector-curvature="0"
         id="path3756"
         d="m 37.59989,586.38562 29.77306,-4.1768 c 1.79379,4.83402 1.59225,8.06582 0.48441,10.56987 z"
         style="fill:#66c6ff;fill-opacity:1;stroke:#000000;stroke-width:1px;stroke-linecap:round;stroke-linejoin:round;stroke-opacity:1"
         sodipodi:nodetypes="cccc" />
      <path
         sodipodi:nodetypes="sssss"
         inkscape:connector-curvature="0"
         id="path3819"
         d="m 127.10614,587.66397 c 0,17.91101 -9.75228,32.43076 -25.77397,32.43076 -16.02168,0 -32.24569,-14.51975 -32.24569,-32.43076 0,-17.91102 16.22401,-32.43076 32.24569,-32.43076 16.02169,0 25.77397,14.51974 25.77397,32.43076 z"
         style="fill:url(#radialGradient5047);fill-opacity:1;stroke:none" />
      <g
         transform="matrix(0.24835162,-0.202305,0.24800554,0.21902265,-75.93429,566.70771)"
         id="g3949">
        <path
           style="fill:#ffffff;fill-opacity:1;stroke:#000000;stroke-width:1.45995474;stroke-linecap:round;stroke-miterlimit:4;stroke-opacity:1;stroke-dasharray:none;stroke-dashoffset:7.00000003"
           d="m 609.30706,541.36768 c -6.97623,-2.48401 -9.41397,-9.77232 -2.67097,-20.82609 6.74301,-11.05378 21.51369,-20.3387 27.08958,-19.20315 4.5168,0.91987 4.91665,17.14478 -1.82637,28.19856 -6.74299,11.05376 -15.61598,14.3147 -22.59224,11.83068 z"
           id="path3865"
           inkscape:connector-curvature="0"
           sodipodi:nodetypes="sssss" />
        <path
           sodipodi:nodetypes="sssss"
           inkscape:connector-curvature="0"
           id="path3881"
           d="m 591.86422,495.88134 c -0.41828,-7.39345 5.35259,-12.46879 18.15692,-10.54449 12.80435,1.9243 27.09414,11.93352 28.21169,17.51305 0.90527,4.51974 -13.8926,11.18536 -26.69695,9.26105 -12.80432,-1.9243 -19.25337,-8.83612 -19.67166,-16.22961 z"
           style="fill:#ffffff;fill-opacity:1;stroke:#000000;stroke-width:1.45995474;stroke-linecap:round;stroke-miterlimit:4;stroke-opacity:1;stroke-dasharray:none;stroke-dashoffset:7.00000003"
           inkscape:transform-center-x="24.437155"
           inkscape:transform-center-y="-5.626511" />
        <path
           sodipodi:nodetypes="sssss"
           inkscape:connector-curvature="0"
           id="path3885"
           d="m 633.14578,462.3745 c 7.22232,-1.6359 13.1826,3.21561 13.40354,16.16184 0.22095,12.94625 -7.28578,28.69527 -12.60347,30.72066 -4.30766,1.64066 -13.32998,-11.85026 -13.55091,-24.79652 -0.22095,-12.94623 5.52849,-20.45006 12.75084,-22.08598 z"
           style="fill:#ffffff;fill-opacity:1;stroke:#000000;stroke-width:1.45995474;stroke-linecap:round;stroke-miterlimit:4;stroke-opacity:1;stroke-dasharray:none;stroke-dashoffset:7.00000003"
           inkscape:transform-center-x="-0.76227013"
           inkscape:transform-center-y="-25.013538" />
        <path
           inkscape:transform-center-y="-8.0884356"
           inkscape:transform-center-x="-24.517525"
           style="fill:#ffffff;fill-opacity:1;stroke:#000000;stroke-width:1.45995474;stroke-linecap:round;stroke-miterlimit:4;stroke-opacity:1;stroke-dasharray:none;stroke-dashoffset:7.00000003"
           d="m 677.45528,490.61756 c 3.77117,6.3731 0.98039,13.53366 -11.2748,17.71268 -12.25519,4.17904 -29.54716,1.86167 -33.10519,-2.57911 -2.88221,-3.59731 7.19335,-16.32092 19.44855,-20.49995 12.25518,-4.17903 21.16024,-1.00673 24.93144,5.36638 z"
           id="path3887"
           inkscape:connector-curvature="0"
           sodipodi:nodetypes="sssss" />
        <path
           inkscape:transform-center-y="22.520942"
           inkscape:transform-center-x="-13.928602"
           style="fill:#ffffff;fill-opacity:1;stroke:#000000;stroke-width:1.45995474;stroke-linecap:round;stroke-miterlimit:4;stroke-opacity:1;stroke-dasharray:none;stroke-dashoffset:7.00000003"
           d="m 657.9562,541.42656 c -5.2144,5.25814 -12.8476,4.36579 -19.98558,-6.43713 -7.13799,-10.80292 -9.26183,-28.11973 -5.86332,-32.68373 2.75301,-3.69713 17.60838,2.83933 24.74637,13.64225 7.13798,10.80292 6.31695,20.22042 1.10253,25.47861 z"
           id="path3891"
           inkscape:connector-curvature="0"
           sodipodi:nodetypes="sssss" />
        <path
           sodipodi:type="arc"
           style="fill:url(#linearGradient3967);fill-opacity:1;stroke:#000000;stroke-width:1.23534644;stroke-linecap:round;stroke-miterlimit:4;stroke-opacity:1;stroke-dasharray:none;stroke-dashoffset:7.00000003"
           id="path3895"
           sodipodi:cx="507.14285"
           sodipodi:cy="134.45163"
           sodipodi:rx="11.785714"
           sodipodi:ry="11.785714"
           d="m 518.92857,134.45163 c 0,6.50907 -5.27665,11.78571 -11.78572,11.78571 -6.50907,0 -11.78571,-5.27664 -11.78571,-11.78571 0,-6.50907 5.27664,-11.78571 11.78571,-11.78571 6.50907,0 11.78572,5.27664 11.78572,11.78571 z"
           transform="matrix(0.9445566,0.71028662,-0.71028662,0.9445566,251.83121,18.005376)" />
        <path
           style="fill:none;stroke:#000000;stroke-width:1.45995486px;stroke-linecap:round;stroke-linejoin:miter;stroke-opacity:1"
           d="m 615.12628,497.27739 3.31331,1.78385"
           id="path3929"
           inkscape:connector-curvature="0" />
        <path
           style="fill:none;stroke:#000000;stroke-width:1.45995474px;stroke-linecap:round;stroke-linejoin:miter;stroke-opacity:1"
           d="m 613.96815,503.72577 3.6525,-0.35715"
           id="path3931"
           inkscape:connector-curvature="0" />
        <path
           inkscape:connector-curvature="0"
           id="path3933"
           d="m 637.22857,483.07537 -0.75702,3.68606"
           style="fill:none;stroke:#000000;stroke-width:1.45995486px;stroke-linecap:round;stroke-linejoin:miter;stroke-opacity:1" />
        <path
           inkscape:connector-curvature="0"
           id="path3935"
           d="m 630.71926,483.81818 1.39119,3.39601"
           style="fill:none;stroke:#000000;stroke-width:1.45995474px;stroke-linecap:round;stroke-linejoin:miter;stroke-opacity:1" />
        <path
           style="fill:none;stroke:#000000;stroke-width:1.45995486px;stroke-linecap:round;stroke-linejoin:miter;stroke-opacity:1"
           d="m 656.14255,501.50731 -3.75567,0.23462"
           id="path3937"
           inkscape:connector-curvature="0" />
        <path
           style="fill:none;stroke:#000000;stroke-width:1.45995474px;stroke-linecap:round;stroke-linejoin:miter;stroke-opacity:1"
           d="m 653.72115,495.41964 -2.91322,2.23192"
           id="path3939"
           inkscape:connector-curvature="0" />
        <path
           style="fill:none;stroke:#000000;stroke-width:1.45995486px;stroke-linecap:round;stroke-linejoin:miter;stroke-opacity:1"
           d="m 619.90795,520.68922 2.86975,-2.43406"
           id="path3941"
           inkscape:connector-curvature="0" />
        <path
           style="fill:none;stroke:#000000;stroke-width:1.45995474px;stroke-linecap:round;stroke-linejoin:miter;stroke-opacity:1"
           d="m 625.48926,524.12023 1.0001,-3.53102"
           id="path3943"
           inkscape:connector-curvature="0" />
        <path
           inkscape:connector-curvature="0"
           id="path3945"
           d="m 642.79035,525.08965 -0.414,-3.74015"
           style="fill:none;stroke:#000000;stroke-width:1.45995486px;stroke-linecap:round;stroke-linejoin:miter;stroke-opacity:1" />
        <path
           inkscape:connector-curvature="0"
           id="path3947"
           d="m 648.75522,522.37983 -2.36871,-2.80312"
           style="fill:none;stroke:#000000;stroke-width:1.45995474px;stroke-linecap:round;stroke-linejoin:miter;stroke-opacity:1" />
      </g>
      <g
         transform="translate(-192.27998,55.173208)"
         id="g6838">
        <path
           style="fill:none;stroke:#000000;stroke-width:1.5;stroke-linecap:round;stroke-linejoin:miter;stroke-miterlimit:4;stroke-opacity:1;stroke-dasharray:none;marker-start:none;marker-end:url(#DotS)"
           d="m 440.33781,498.19752 c 0,0 -4.58601,-25.18247 0.93158,-35.749 2.33931,-4.47992 7.17505,-9.4022 12.21182,-8.98612 1.88528,0.15574 4.19777,2.1917 3.957,4.06801 -0.27576,2.14908 -1.58225,3.93012 -5.5618,3.36417"
           id="path3851-5"
           inkscape:connector-curvature="0"
           sodipodi:nodetypes="caaac" />
        <path
           style="fill:none;stroke:#000000;stroke-width:1.5;stroke-linecap:round;stroke-linejoin:miter;stroke-miterlimit:4;stroke-opacity:1;stroke-dasharray:none;marker-start:none;marker-end:url(#DotS)"
           d="m 446.28981,493.81692 c 0,0 -1.5787,-12.75106 0.82071,-18.40346 2.34814,-5.53165 6.49537,-11.96055 12.39799,-13.08837 1.92127,-0.3671 4.46369,-0.18279 5.32189,2.4723 0.9525,2.9469 -1.59823,5.39009 -5.11721,4.27221"
           id="path3853-9"
           inkscape:connector-curvature="0"
           sodipodi:nodetypes="caasc" />
      </g>
    </g>
  </g>
</svg>
